<?xml version="1.0" encoding="UTF-8"?>
<svg id="Livello_1" data-name="Livello 1" xmlns="http://www.w3.org/2000/svg" viewBox="0 0 280.01 66.16">
  <defs>
    <style>
      .cls-1 {
        fill: #fff;
        fill-rule: evenodd;
        stroke-width: 0px;
      }
    </style>
  </defs>
  <g>
    <path class="cls-1" d="m3.74,55.54H0v-2.39h10.19v2.39h-3.71v10.38h-2.74v-10.38Z"/>
    <path class="cls-1" d="m17.74,60.3c0-1.28-.67-1.69-1.72-1.69-.94,0-1.69.54-2.11,1.09v6.23h-2.43v-12.78h2.43v4.73c.59-.71,1.74-1.44,3.26-1.44,2.03,0,3.01,1.11,3.01,2.91v6.57h-2.43v-5.62h-.01Z"/>
    <path class="cls-1" d="m26.53,56.44c2.76,0,4.64,2.07,4.64,5.1v.54h-6.88c.15,1.17,1.09,2.15,2.66,2.15.86,0,1.88-.34,2.47-.92l1.07,1.57c-.92.84-2.38,1.28-3.81,1.28-2.82,0-4.94-1.9-4.94-4.87,0-2.68,1.98-4.85,4.79-4.85Zm-2.28,3.99h4.56c-.06-.88-.67-2.05-2.28-2.05-1.51,0-2.16,1.13-2.28,2.05Z"/>
    <path class="cls-1" d="m44.1,60.3c0-1.28-.67-1.69-1.72-1.69-.94,0-1.69.54-2.11,1.09v6.23h-2.43v-12.78h2.43v4.73c.59-.71,1.74-1.44,3.26-1.44,2.03,0,3.01,1.11,3.01,2.91v6.57h-2.43v-5.62h0Z"/>
    <path class="cls-1" d="m48.1,61.29c0-2.62,1.84-4.85,4.88-4.85s4.9,2.22,4.9,4.85-1.84,4.87-4.9,4.87c-3.04,0-4.88-2.23-4.88-4.87Zm7.26,0c0-1.44-.86-2.68-2.38-2.68s-2.36,1.25-2.36,2.68.84,2.7,2.36,2.7,2.38-1.24,2.38-2.7Z"/>
    <path class="cls-1" d="m70.96,60.08c0-.86-.38-1.48-1.38-1.48-.86,0-1.57.57-1.92,1.07v6.24h-2.45v-5.84c0-.86-.38-1.48-1.38-1.48-.84,0-1.55.57-1.92,1.09v6.23h-2.43v-9.25h2.43v1.21c.38-.56,1.61-1.44,3.03-1.44s2.22.63,2.57,1.69c.54-.84,1.76-1.69,3.18-1.69,1.7,0,2.72.9,2.72,2.8v6.69h-2.45v-5.84h0Z"/>
    <path class="cls-1" d="m79.78,56.44c2.76,0,4.64,2.07,4.64,5.1v.54h-6.88c.15,1.17,1.09,2.15,2.66,2.15.86,0,1.88-.34,2.47-.92l1.07,1.57c-.92.84-2.38,1.28-3.81,1.28-2.82,0-4.94-1.9-4.94-4.87,0-2.68,1.97-4.85,4.79-4.85Zm-2.28,3.99h4.56c-.06-.88-.67-2.05-2.28-2.05-1.51,0-2.17,1.13-2.28,2.05Z"/>
    <path class="cls-1" d="m90.48,61.29c0-2.62,1.84-4.85,4.88-4.85s4.9,2.22,4.9,4.85-1.84,4.87-4.9,4.87c-3.04,0-4.88-2.23-4.88-4.87Zm7.26,0c0-1.44-.86-2.68-2.38-2.68s-2.36,1.25-2.36,2.68.84,2.7,2.36,2.7,2.38-1.24,2.38-2.7Z"/>
    <path class="cls-1" d="m102.4,58.8h-1.53v-2.13h1.53v-.5c0-2.01,1.3-3.22,3.12-3.22.69,0,1.32.15,1.76.38l-.5,1.72c-.21-.13-.5-.19-.79-.19-.69,0-1.15.46-1.15,1.34v.46h1.88v2.13h-1.88v7.13h-2.45v-7.12h0Z"/>
    <path class="cls-1" d="m113.28,63.01c.67.63,2.05,1.26,3.2,1.26,1.05,0,1.55-.36,1.55-.94,0-.65-.8-.88-1.86-1.09-1.59-.31-3.64-.69-3.64-2.89,0-1.55,1.36-2.91,3.79-2.91,1.57,0,2.82.54,3.74,1.26l-.98,1.67c-.56-.59-1.61-1.07-2.74-1.07-.88,0-1.46.33-1.46.86,0,.57.73.79,1.76,1,1.59.31,3.72.73,3.72,3.03,0,1.69-1.44,2.97-4,2.97-1.61,0-3.16-.54-4.14-1.44l1.06-1.71Z"/>
    <path class="cls-1" d="m128.14,64.76c-.63.71-1.74,1.4-3.26,1.4-2.03,0-2.99-1.11-2.99-2.91v-6.57h2.43v5.61c0,1.28.67,1.7,1.7,1.7.94,0,1.69-.52,2.11-1.05v-6.26h2.43v9.25h-2.43v-1.17h.01Z"/>
    <path class="cls-1" d="m133.06,63.01c.67.63,2.05,1.26,3.2,1.26,1.05,0,1.55-.36,1.55-.94,0-.65-.8-.88-1.86-1.09-1.59-.31-3.64-.69-3.64-2.89,0-1.55,1.36-2.91,3.79-2.91,1.57,0,2.82.54,3.74,1.26l-.98,1.67c-.56-.59-1.61-1.07-2.74-1.07-.88,0-1.46.33-1.46.86,0,.57.73.79,1.76,1,1.59.31,3.72.73,3.72,3.03,0,1.69-1.44,2.97-4,2.97-1.61,0-3.16-.54-4.14-1.44l1.06-1.71Z"/>
    <path class="cls-1" d="m142.34,63.62v-4.83h-1.53v-2.13h1.53v-2.53h2.45v2.53h1.88v2.13h-1.88v4.18c0,.57.31,1.01.84,1.01.36,0,.71-.13.84-.27l.52,1.84c-.36.33-1.01.59-2.03.59-1.7.01-2.62-.87-2.62-2.52Z"/>
    <path class="cls-1" d="m153.75,64.97c-.63.75-1.72,1.19-2.93,1.19-1.48,0-3.22-1-3.22-3.06s1.74-2.95,3.22-2.95c1.23,0,2.32.38,2.93,1.13v-1.28c0-.94-.8-1.55-2.03-1.55-1,0-1.92.36-2.7,1.09l-.92-1.63c1.13-1,2.59-1.46,4.04-1.46,2.11,0,4.04.84,4.04,3.51v5.98h-2.43v-.97Zm0-2.41c-.4-.54-1.17-.8-1.95-.8-.96,0-1.74.5-1.74,1.4s.79,1.36,1.74,1.36c.79,0,1.55-.27,1.95-.8v-1.16Z"/>
    <path class="cls-1" d="m158.04,53.86c0-.8.67-1.46,1.46-1.46s1.46.65,1.46,1.46-.65,1.46-1.46,1.46c-.79-.01-1.46-.66-1.46-1.46Zm.25,2.82h2.43v9.25h-2.43v-9.25Z"/>
    <path class="cls-1" d="m169.11,60.33c0-1.28-.67-1.72-1.7-1.72-.96,0-1.71.54-2.11,1.09v6.23h-2.43v-9.25h2.43v1.21c.59-.71,1.72-1.44,3.24-1.44,2.03,0,3.01,1.15,3.01,2.95v6.53h-2.43v-5.6h-.01Z"/>
    <path class="cls-1" d="m179.26,64.97c-.63.75-1.72,1.19-2.93,1.19-1.48,0-3.22-1-3.22-3.06s1.74-2.95,3.22-2.95c1.23,0,2.32.38,2.93,1.13v-1.28c0-.94-.8-1.55-2.03-1.55-1,0-1.92.36-2.7,1.09l-.92-1.63c1.13-1,2.59-1.46,4.04-1.46,2.11,0,4.04.84,4.04,3.51v5.98h-2.43v-.97Zm0-2.41c-.4-.54-1.17-.8-1.95-.8-.96,0-1.74.5-1.74,1.4s.79,1.36,1.74,1.36c.79,0,1.55-.27,1.95-.8v-1.16Z"/>
    <path class="cls-1" d="m183.82,53.15h2.43v4.71c.73-.94,1.76-1.42,2.85-1.42,2.36,0,4.1,1.84,4.1,4.87s-1.76,4.85-4.1,4.85c-1.11,0-2.13-.5-2.85-1.42v1.19h-2.43v-12.78Zm4.52,10.84c1.42,0,2.36-1.07,2.36-2.68s-.94-2.7-2.36-2.7c-.79,0-1.69.46-2.09,1.07v3.28c.4.59,1.3,1.03,2.09,1.03Z"/>
    <path class="cls-1" d="m194.87,53.15h2.43v12.78h-2.43v-12.78Z"/>
    <path class="cls-1" d="m203.66,56.44c2.76,0,4.64,2.07,4.64,5.1v.54h-6.88c.15,1.17,1.09,2.15,2.66,2.15.86,0,1.88-.34,2.47-.92l1.07,1.57c-.92.84-2.38,1.28-3.81,1.28-2.82,0-4.94-1.9-4.94-4.87,0-2.68,1.98-4.85,4.79-4.85Zm-2.28,3.99h4.56c-.06-.88-.67-2.05-2.28-2.05-1.51,0-2.16,1.13-2.28,2.05Z"/>
    <path class="cls-1" d="m219.27,56.44c1.9,0,3.05.82,3.66,1.67l-1.59,1.49c-.44-.65-1.11-1-1.95-1-1.48,0-2.51,1.07-2.51,2.68s1.03,2.7,2.51,2.7c.84,0,1.51-.38,1.95-1l1.59,1.48c-.61.86-1.76,1.69-3.66,1.69-2.85,0-4.9-2.01-4.9-4.87,0-2.82,2.05-4.84,4.9-4.84Z"/>
    <path class="cls-1" d="m223.43,61.29c0-2.62,1.84-4.85,4.88-4.85s4.9,2.22,4.9,4.85-1.84,4.87-4.9,4.87c-3.04,0-4.88-2.23-4.88-4.87Zm7.26,0c0-1.44-.86-2.68-2.38-2.68s-2.36,1.25-2.36,2.68.84,2.7,2.36,2.7,2.38-1.24,2.38-2.7Z"/>
    <path class="cls-1" d="m246.29,60.08c0-.86-.38-1.48-1.38-1.48-.86,0-1.57.57-1.92,1.07v6.24h-2.45v-5.84c0-.86-.38-1.48-1.38-1.48-.84,0-1.55.57-1.92,1.09v6.23h-2.43v-9.25h2.43v1.21c.38-.56,1.61-1.44,3.03-1.44s2.22.63,2.57,1.69c.54-.84,1.76-1.69,3.18-1.69,1.7,0,2.72.9,2.72,2.8v6.69h-2.45v-5.84Z"/>
    <path class="cls-1" d="m251.47,58.8h-1.53v-2.13h1.53v-.5c0-2.01,1.3-3.22,3.12-3.22.69,0,1.32.15,1.76.38l-.5,1.72c-.21-.13-.5-.19-.79-.19-.69,0-1.15.46-1.15,1.34v.46h1.88v2.13h-1.88v7.13h-2.45v-7.12h0Z"/>
    <path class="cls-1" d="m256.38,61.29c0-2.62,1.84-4.85,4.88-4.85s4.9,2.22,4.9,4.85-1.84,4.87-4.9,4.87c-3.04,0-4.88-2.23-4.88-4.87Zm7.26,0c0-1.44-.86-2.68-2.38-2.68s-2.36,1.25-2.36,2.68.84,2.7,2.36,2.7,2.38-1.24,2.38-2.7Z"/>
    <path class="cls-1" d="m267.76,56.68h2.43v1.26c.65-.82,1.8-1.48,2.95-1.48v2.38c-.17-.04-.4-.08-.67-.08-.8,0-1.88.46-2.28,1.05v6.11h-2.43v-9.24Z"/>
    <path class="cls-1" d="m275.35,63.62v-4.83h-1.53v-2.13h1.53v-2.53h2.45v2.53h1.88v2.13h-1.88v4.18c0,.57.31,1.01.84,1.01.36,0,.71-.13.84-.27l.52,1.84c-.36.33-1.01.59-2.03.59-1.7.01-2.62-.87-2.62-2.52Z"/>
  </g>
  <g>
    <g>
      <polygon class="cls-1" points="180.03 18.44 180.03 24.16 191.18 24.16 191.18 45.19 197.23 45.19 197.23 24.16 208.05 24.16 208.05 18.44 180.03 18.44"/>
      <path class="cls-1" d="m271.8,43.56c1.95,1.93,2.48,2.26,4.39,2.26,2.55,0,3.82-2.23,3.82-3.82v-23.56h-6.37v18.79l-16.56-17.19c-1.95-1.93-2.55-2.23-4.46-2.23-2.55,0-3.82,2.23-3.82,3.82v23.56h6.37v-18.79l16.63,17.16Z"/>
      <path class="cls-1" d="m227.47,17.49c-10.6,0-16.56,2.63-16.56,14.33s5.95,14.33,16.56,14.33,16.56-2.63,16.56-14.33-5.95-14.33-16.56-14.33Zm0,22.6c-6.55,0-9.87-.48-9.87-8.28s3.32-8.28,9.87-8.28,9.97.48,9.97,8.28-3.42,8.28-9.97,8.28Z"/>
      <polygon class="cls-1" points="132.57 45.19 138.64 45.19 138.62 18.44 132.57 18.44 132.57 45.19"/>
      <path class="cls-1" d="m102.66,24.16h12.2c3.59,0,4.03,1.63,4.03,3.17s-.47,3.19-4.01,3.19h-12.22s0-6.36,0-6.36Zm16.73,10.86c3.82-.95,5.99-3.85,5.99-7.82,0-5.41-3.57-8.77-9.32-8.77h-19.13v26.75h5.73v-9.55h10.19l6.33,9.55h7.36l-7.15-10.16Z"/>
      <path class="cls-1" d="m163.54,28.39h-5.36c-4.6,0-5.54-.87-5.54-2.51,0-2.01,3.08-2.78,7.42-2.78,3.82,0,7.42.64,11.6,2.6l3.21-4.51c-4.56-2.75-9.2-3.7-14.88-3.7-8.71,0-13.79,3.21-13.79,8.69,0,5.96,4.93,7.99,11.29,7.93h5.91c5.81,0,6.58.67,6.58,2.88s-3.22,3.55-8.39,3.55c-4.55,0-9.23-.9-13.34-3.64l-3.25,4.62c4.36,3.47,9.74,4.67,16.55,4.67,9.51,0,14.97-3.46,14.97-9.49,0-5.54-4.36-8.31-12.98-8.31"/>
      <path class="cls-1" d="m55.51,45.19h7.35l2.87-4.78h17.19l2.87,4.78h7.32l-15.6-25.79c-.64-.96-1.91-1.59-3.18-1.59s-2.55.64-3.18,1.59l-15.64,25.79Zm18.81-19.77l5.73,9.9h-11.46l5.73-9.87"/>
    </g>
    <g>
      <polygon class="cls-1" points="13.36 23.61 13.36 33.16 27.35 33.16 27.35 23.61 20.35 17.25 13.36 23.61"/>
      <path class="cls-1" d="m40.71,18.54v23.29c0,1.85-1.5,3.35-3.35,3.35H3.36C1.51,45.18.01,43.68.01,41.83v-23.29c0-.95.41-1.86,1.12-2.5L18.12.86c1.27-1.14,3.19-1.14,4.46,0l17.01,15.18c.72.64,1.12,1.55,1.12,2.5ZM20.35,6.11l-15.26,13.69v20.36h30.54v-20.36l-15.28-13.69Z"/>
    </g>
  </g>
</svg>